User Type,Username,Date,Text
[T],thumbsplus,2011-04-22T03:47Z,"NTSC

Format                           : MPEG-PS

Video
ID                               : 224 (0xE0)
Format                           : MPEG Video
Format version                   : Version 2
Format profile                   : Main@Main
Format settings, BVOP            : Yes
Format settings, Matrix          : Default
Format settings, GOP             : M=3, N=18
Duration                         : 3mn 57s
Bit rate mode                    : Variable
Bit rate                         : 35.3 Mbps
Nominal bit rate                 : 8 000 Kbps
Width                            : 720 pixels
Height                           : 480 pixels
Display aspect ratio             : 16:9
Frame rate                       : 29.970 fps
Standard                         : NTSC
Color space                      : YUV
Chroma subsampling               : 4:2:0
Bit depth                        : 8 bits
Scan type                        : Progressive
Compression mode                 : Lossy
Bits/(Pixel*Frame)               : 3.407
Stream size                      : 997 MiB (97%)
Writing library                  : TMPGEnc DVD Author 3 Version. 3.1.2.176

Audio
ID                               : 189 (0xBD)-128 (0x80)
Format                           : AC-3
Format/Info                      : Audio Coding 3
Mode extension                   : CM (complete main)
Muxing mode                      : DVD-Video
Duration                         : 3mn 56s
Bit rate mode                    : Constant
Bit rate                         : 224 Kbps
Channel(s)                       : 2 channels
Channel positions                : Front: L R
Sampling rate                    : 48.0 KHz
Bit depth                        : 16 bits
Compression mode                 : Lossy
Stream size                      : 6.32 MiB (1%)"
,awqurt,2012-04-07T12:28Z,Pathetic. Too bad
